<svg width="12" height="12" viewBox="0 0 12 12" fill="none" xmlns="http://www.w3.org/2000/svg">
<path d="M11.5 6.14062C11.5 8.36487 9.80958 10.2941 7.4375 10.8628V8.19891H8.3354H8.75725L8.82827 7.78308L9.0944 6.2248L9.19416 5.64062H8.60153H7.4375V5.1288C7.4375 5.00105 7.47196 4.93131 7.50716 4.89474C7.53774 4.86296 7.635 4.78695 7.91516 4.78695H8.67194H9.17194V4.28695V2.96103V2.5318L8.74766 2.46679L8.67194 2.96103L8.74759 2.46678L8.74749 2.46677L8.74726 2.46673L8.7466 2.46663L8.74455 2.46632L8.7375 2.46527L8.71214 2.46157C8.69039 2.45845 8.65918 2.45409 8.6199 2.4489C8.54143 2.43853 8.43037 2.4248 8.29811 2.41109C8.0355 2.38387 7.68091 2.35582 7.32871 2.35582C6.55638 2.35582 5.8581 2.56644 5.3471 3.02603C4.8287 3.49228 4.5625 4.16153 4.5625 4.95295V5.64062H3.53831H3.03831V6.14062V7.69891V8.19891H3.53831H4.5625V10.8628C2.19042 10.2941 0.5 8.36487 0.5 6.14062C0.5 3.4879 2.90991 1.25 6 1.25C9.09009 1.25 11.5 3.4879 11.5 6.14062Z" stroke="#333333" stroke-opacity="0.5"/>
</svg>
