<svg width="12" height="13" viewBox="0 0 12 13" fill="none" xmlns="http://www.w3.org/2000/svg">
<path d="M10.6352 2.11482L10.6359 2.11549C11.2161 2.69356 11.4159 3.40118 11.4584 4.29869L11.9578 4.27504L11.4586 4.30337C11.5138 5.27502 11.5138 8.2223 11.4586 9.19395L11.4585 9.19724C11.4134 10.0959 11.2135 10.8042 10.6352 11.3825L10.6345 11.3832C10.0564 11.9635 9.34882 12.1632 8.45131 12.2057L8.45131 12.2057L8.44663 12.206C7.47498 12.2611 4.52502 12.2611 3.55338 12.206L3.55008 12.2058C2.6521 12.1608 1.94562 11.9611 1.36415 11.3818C0.783867 10.8038 0.584105 10.0961 0.541604 9.19863L0.541626 9.19863L0.541361 9.19395C0.486213 8.2223 0.486213 5.27234 0.541361 4.3007L0.541371 4.3007L0.541537 4.2974C0.586651 3.39762 0.784334 2.69042 1.36415 2.11282C1.94541 1.53376 2.65423 1.33408 3.54876 1.2916L3.54876 1.29162L3.55337 1.29136C4.52502 1.23621 7.47498 1.23621 8.44663 1.29136V1.29137L8.44992 1.29154C9.3486 1.3366 10.0569 1.53653 10.6352 2.11482ZM9.7221 11.8903L9.72386 11.8896C10.3775 11.6275 10.8829 11.1228 11.1428 10.47C11.3365 9.98317 11.3951 9.23143 11.4159 8.56457C11.4313 8.0694 11.4262 7.56052 11.4221 7.15883C11.4205 7.00383 11.4191 6.8648 11.4191 6.74866C11.4191 6.63251 11.4205 6.4935 11.4221 6.33856C11.4262 5.93709 11.4313 5.42865 11.4159 4.93375C11.3951 4.26694 11.3364 3.51567 11.143 3.0279L11.1423 3.02614C10.8801 2.3725 10.3755 1.86706 9.72264 1.60724L9.72127 1.6067C9.23532 1.41496 8.48447 1.35625 7.81749 1.33514C7.31858 1.31934 6.80648 1.32425 6.4034 1.32811C6.25179 1.32957 6.1156 1.33087 6.00134 1.33087C5.88519 1.33087 5.74618 1.32946 5.59123 1.3279C5.18976 1.32384 4.68133 1.3187 4.18643 1.33412C3.51962 1.35491 2.76834 1.41358 2.28058 1.60703L2.28058 1.60702L2.27882 1.60773C1.62517 1.86985 1.11974 2.37449 0.85992 3.02736L0.859918 3.02736L0.859378 3.02873C0.667641 3.51468 0.608924 4.26553 0.587813 4.93251C0.572022 5.43142 0.576928 5.94352 0.58079 6.3466C0.582242 6.49821 0.583547 6.6344 0.583547 6.74866C0.583547 6.86481 0.582142 7.00382 0.580575 7.15877C0.576515 7.56024 0.571374 8.06867 0.586802 8.56357C0.607588 9.23038 0.666253 9.98166 0.859701 10.4694L0.860408 10.4712C1.12253 11.1248 1.62716 11.6303 2.28004 11.8901L2.28141 11.8906C2.76736 12.0824 3.5182 12.1411 4.18519 12.1622C4.68409 12.178 5.1962 12.1731 5.59928 12.1692C5.75089 12.1678 5.88708 12.1665 6.00134 12.1665C6.11749 12.1665 6.2565 12.1679 6.41144 12.1694C6.81291 12.1735 7.32135 12.1786 7.81625 12.1632C8.48306 12.1424 9.23433 12.0837 9.7221 11.8903ZM3.42538 6.74866C3.42538 5.32218 4.57486 4.1727 6.00134 4.1727C7.42782 4.1727 8.5773 5.32218 8.5773 6.74866C8.5773 8.17514 7.42782 9.32462 6.00134 9.32462C4.57486 9.32462 3.42538 8.17514 3.42538 6.74866ZM3.50156 6.74866C3.50156 8.1282 4.62535 9.24844 6.00134 9.24844C7.37732 9.24844 8.50112 8.1282 8.50112 6.74866C8.50112 5.36956 7.38044 4.24888 6.00134 4.24888C4.62224 4.24888 3.50156 5.36956 3.50156 6.74866ZM9.42058 3.54688C9.42058 3.6684 9.32441 3.76433 9.20312 3.76433C9.0816 3.76433 8.98567 3.66816 8.98567 3.54688C8.98567 3.42681 9.08306 3.32942 9.20312 3.32942C9.32319 3.32942 9.42058 3.42681 9.42058 3.54688Z" stroke="#333333" stroke-opacity="0.5"/>
</svg>
