<svg width="12" height="13" viewBox="0 0 12 13" fill="none" xmlns="http://www.w3.org/2000/svg">
<path d="M6.00134 3.6727C4.29872 3.6727 2.92538 5.04604 2.92538 6.74866C2.92538 8.45128 4.29872 9.82462 6.00134 9.82462C7.70396 9.82462 9.0773 8.45128 9.0773 6.74866C9.0773 5.04604 7.70396 3.6727 6.00134 3.6727ZM6.00134 8.74844C4.90106 8.74844 4.00156 7.85162 4.00156 6.74866C4.00156 5.64571 4.89838 4.74888 6.00134 4.74888C7.10429 4.74888 8.00112 5.64571 8.00112 6.74866C8.00112 7.85162 7.10162 8.74844 6.00134 8.74844ZM9.92058 3.54688C9.92058 3.94576 9.59933 4.26433 9.20312 4.26433C8.80424 4.26433 8.48567 3.94308 8.48567 3.54688C8.48567 3.15067 8.80692 2.82942 9.20312 2.82942C9.59933 2.82942 9.92058 3.15067 9.92058 3.54688ZM11.9578 4.27504C11.9123 3.31397 11.6928 2.46266 10.9887 1.76127C10.2873 1.05987 9.43603 0.840351 8.47496 0.792164C7.48444 0.735945 4.51556 0.735945 3.52504 0.792164C2.56665 0.837674 1.71534 1.05719 1.01127 1.75859C0.307195 2.45998 0.0903514 3.31129 0.042164 4.27236C-0.0140547 5.26288 -0.0140547 8.23176 0.042164 9.22228C0.0876743 10.1834 0.307195 11.0347 1.01127 11.7361C1.71534 12.4375 2.56397 12.657 3.52504 12.7052C4.51556 12.7614 7.48444 12.7614 8.47496 12.7052C9.43603 12.6596 10.2873 12.4401 10.9887 11.7361C11.6901 11.0347 11.9096 10.1834 11.9578 9.22228C12.0141 8.23176 12.0141 5.26556 11.9578 4.27504ZM10.6782 10.2851C10.4694 10.8098 10.0651 11.214 9.53776 11.4255C8.74802 11.7387 6.87407 11.6665 6.00134 11.6665C5.12861 11.6665 3.25198 11.7361 2.46492 11.4255C1.94021 11.2167 1.53597 10.8125 1.32448 10.2851C1.01127 9.49534 1.08355 7.62139 1.08355 6.74866C1.08355 5.87593 1.01394 3.9993 1.32448 3.21224C1.5333 2.68753 1.93753 2.2833 2.46492 2.07181C3.25466 1.75859 5.12861 1.83087 6.00134 1.83087C6.87407 1.83087 8.7507 1.76127 9.53776 2.07181C10.0625 2.28062 10.4667 2.68486 10.6782 3.21224C10.9914 4.00198 10.9191 5.87593 10.9191 6.74866C10.9191 7.62139 10.9914 9.49802 10.6782 10.2851Z" fill="white" fill-opacity="0.5"/>
</svg>
