<svg width="122" height="27" viewBox="0 0 122 27" fill="none" xmlns="http://www.w3.org/2000/svg">
<path d="M27.389 0.964H29.565L30.942 4.959L32.336 0.964H34.495L32.421 6.455L33.951 10.297L37.368 0.929999H39.918L35.09 13H33.067L30.942 7.934L28.834 13H26.811L22 0.929999H24.516L27.95 10.297L29.446 6.455L27.389 0.964ZM45.8406 13.085C44.9566 13.085 44.152 12.915 43.4266 12.575C42.7126 12.235 42.095 11.776 41.5736 11.198C41.0636 10.6087 40.667 9.95133 40.3836 9.226C40.1003 8.48933 39.9586 7.73567 39.9586 6.965C39.9586 6.16033 40.106 5.39533 40.4006 4.67C40.7066 3.93333 41.1203 3.28167 41.6416 2.715C42.1743 2.137 42.7976 1.68367 43.5116 1.355C44.237 1.015 45.0303 0.844999 45.8916 0.844999C46.7643 0.844999 47.5576 1.02067 48.2716 1.372C48.997 1.72333 49.6146 2.19367 50.1246 2.783C50.6346 3.37233 51.0313 4.02967 51.3146 4.755C51.598 5.48033 51.7396 6.22833 51.7396 6.999C51.7396 7.79233 51.5923 8.55733 51.2976 9.294C51.003 10.0193 50.5893 10.671 50.0566 11.249C49.5353 11.8157 48.912 12.2633 48.1866 12.592C47.4726 12.9207 46.6906 13.085 45.8406 13.085ZM42.3386 6.965C42.3386 7.48633 42.418 7.99067 42.5766 8.478C42.7353 8.96533 42.962 9.40167 43.2566 9.787C43.5626 10.161 43.931 10.4613 44.3616 10.688C44.8036 10.9033 45.3023 11.011 45.8576 11.011C46.4243 11.011 46.9286 10.8977 47.3706 10.671C47.8126 10.433 48.181 10.1213 48.4756 9.736C48.7703 9.33933 48.9913 8.903 49.1386 8.427C49.2973 7.93967 49.3766 7.45233 49.3766 6.965C49.3766 6.44367 49.2916 5.945 49.1216 5.469C48.963 4.98167 48.7306 4.551 48.4246 4.177C48.13 3.79167 47.7616 3.49133 47.3196 3.276C46.889 3.04933 46.4016 2.936 45.8576 2.936C45.2796 2.936 44.7696 3.055 44.3276 3.293C43.897 3.51967 43.5343 3.82567 43.2396 4.211C42.945 4.59633 42.7183 5.027 42.5596 5.503C42.4123 5.979 42.3386 6.46633 42.3386 6.965ZM58.6903 13.085C57.8063 13.085 57.0016 12.915 56.2763 12.575C55.5623 12.235 54.9446 11.776 54.4233 11.198C53.9133 10.6087 53.5166 9.95133 53.2333 9.226C52.9499 8.48933 52.8083 7.73567 52.8083 6.965C52.8083 6.16033 52.9556 5.39533 53.2503 4.67C53.5563 3.93333 53.9699 3.28167 54.4913 2.715C55.0239 2.137 55.6473 1.68367 56.3613 1.355C57.0866 1.015 57.8799 0.844999 58.7413 0.844999C59.6139 0.844999 60.4073 1.02067 61.1213 1.372C61.8466 1.72333 62.4643 2.19367 62.9743 2.783C63.4843 3.37233 63.8809 4.02967 64.1643 4.755C64.4476 5.48033 64.5893 6.22833 64.5893 6.999C64.5893 7.79233 64.4419 8.55733 64.1473 9.294C63.8526 10.0193 63.4389 10.671 62.9062 11.249C62.3849 11.8157 61.7616 12.2633 61.0363 12.592C60.3223 12.9207 59.5403 13.085 58.6903 13.085ZM55.1883 6.965C55.1883 7.48633 55.2676 7.99067 55.4263 8.478C55.5849 8.96533 55.8116 9.40167 56.1063 9.787C56.4123 10.161 56.7806 10.4613 57.2113 10.688C57.6533 10.9033 58.1519 11.011 58.7073 11.011C59.2739 11.011 59.7783 10.8977 60.2203 10.671C60.6623 10.433 61.0306 10.1213 61.3253 9.736C61.6199 9.33933 61.8409 8.903 61.9883 8.427C62.1469 7.93967 62.2263 7.45233 62.2263 6.965C62.2263 6.44367 62.1413 5.945 61.9713 5.469C61.8126 4.98167 61.5803 4.551 61.2743 4.177C60.9796 3.79167 60.6113 3.49133 60.1693 3.276C59.7386 3.04933 59.2513 2.936 58.7073 2.936C58.1293 2.936 57.6193 3.055 57.1773 3.293C56.7466 3.51967 56.3839 3.82567 56.0893 4.211C55.7946 4.59633 55.5679 5.027 55.4093 5.503C55.2619 5.979 55.1883 6.46633 55.1883 6.965ZM66.3889 13V0.929999H70.7749C72.0895 0.929999 73.1889 1.202 74.0729 1.746C74.9569 2.27867 75.6199 3.004 76.0619 3.922C76.5039 4.82867 76.7249 5.83733 76.7249 6.948C76.7249 8.172 76.4812 9.23733 75.9939 10.144C75.5065 11.0507 74.8152 11.7533 73.9199 12.252C73.0359 12.7507 71.9875 13 70.7749 13H66.3889ZM74.3619 6.948C74.3619 6.166 74.2202 5.48033 73.9369 4.891C73.6535 4.29033 73.2455 3.82567 72.7129 3.497C72.1802 3.157 71.5342 2.987 70.7749 2.987H68.7349V10.943H70.7749C71.5455 10.943 72.1972 10.773 72.7299 10.433C73.2625 10.0817 73.6649 9.60567 73.9369 9.005C74.2202 8.393 74.3619 7.70733 74.3619 6.948ZM87.3524 2.987H83.4934V13H81.1644V2.987H77.3054V0.929999H87.3524V2.987ZM97.2318 10.943V13H88.8508V0.929999H97.0788V2.987H91.1968V5.894H96.2798V7.798H91.1968V10.943H97.2318ZM98.1139 6.88C98.1139 6.14333 98.2442 5.42367 98.5049 4.721C98.7769 4.007 99.1679 3.361 99.6779 2.783C100.188 2.19367 100.811 1.729 101.548 1.389C102.285 1.03767 103.123 0.861999 104.064 0.861999C105.175 0.861999 106.132 1.10567 106.937 1.593C107.753 2.08033 108.359 2.715 108.756 3.497L106.954 4.738C106.75 4.28467 106.484 3.92767 106.155 3.667C105.826 3.395 105.475 3.208 105.101 3.106C104.727 2.99267 104.359 2.936 103.996 2.936C103.407 2.936 102.891 3.055 102.449 3.293C102.018 3.531 101.656 3.84267 101.361 4.228C101.066 4.61333 100.845 5.044 100.698 5.52C100.562 5.996 100.494 6.472 100.494 6.948C100.494 7.48067 100.579 7.99633 100.749 8.495C100.919 8.98233 101.157 9.41867 101.463 9.804C101.78 10.178 102.154 10.4783 102.585 10.705C103.027 10.9203 103.509 11.028 104.03 11.028C104.404 11.028 104.784 10.9657 105.169 10.841C105.554 10.7163 105.911 10.518 106.24 10.246C106.569 9.974 106.824 9.62267 107.005 9.192L108.926 10.297C108.688 10.8977 108.297 11.4077 107.753 11.827C107.22 12.2463 106.62 12.5637 105.951 12.779C105.282 12.9943 104.619 13.102 103.962 13.102C103.101 13.102 102.313 12.9263 101.599 12.575C100.885 12.2123 100.267 11.7363 99.7459 11.147C99.2359 10.5463 98.8336 9.87767 98.5389 9.141C98.2556 8.393 98.1139 7.63933 98.1139 6.88ZM120.648 0.929999V13H118.319V7.849H112.845V13H110.499V0.929999H112.845V5.809H118.319V0.929999H120.648Z" fill="#333333"/>
<path fill-rule="evenodd" clip-rule="evenodd" d="M10 0H0V10C0 12.7614 2.23858 15 5 15H15V5C15 2.23858 12.7614 0 10 0ZM10 2H2V10C2 11.6569 3.34315 13 5 13H13V5C13 3.34315 11.6569 2 10 2Z" fill="#F88500"/>
<path d="M25.708 17.48H26.416L29.956 26H29.068L27.964 23.336H24.136L23.044 26H22.144L25.708 17.48ZM27.772 22.676L26.056 18.464L24.316 22.676H27.772ZM37.0094 20.468C36.4654 20.484 35.9854 20.636 35.5694 20.924C35.1614 21.212 34.8734 21.608 34.7054 22.112V26H33.8894V19.748H34.6574V21.248C34.8734 20.808 35.1574 20.452 35.5094 20.18C35.8694 19.908 36.2494 19.756 36.6494 19.724C36.7294 19.716 36.7974 19.712 36.8534 19.712C36.9174 19.712 36.9694 19.716 37.0094 19.724V20.468ZM43.4892 26.12C43.0332 26.12 42.6132 26.036 42.2292 25.868C41.8532 25.692 41.5212 25.452 41.2332 25.148C40.9532 24.844 40.7332 24.496 40.5732 24.104C40.4212 23.712 40.3452 23.296 40.3452 22.856C40.3452 22.264 40.4772 21.724 40.7412 21.236C41.0052 20.748 41.3732 20.36 41.8452 20.072C42.3172 19.784 42.8612 19.64 43.4772 19.64C44.0612 19.64 44.5772 19.776 45.0252 20.048C45.4732 20.312 45.8052 20.672 46.0212 21.128L45.2292 21.38C45.0532 21.06 44.8052 20.812 44.4852 20.636C44.1732 20.452 43.8252 20.36 43.4412 20.36C43.0252 20.36 42.6452 20.468 42.3012 20.684C41.9572 20.9 41.6812 21.196 41.4732 21.572C41.2732 21.948 41.1732 22.376 41.1732 22.856C41.1732 23.328 41.2772 23.756 41.4852 24.14C41.6932 24.524 41.9692 24.832 42.3132 25.064C42.6572 25.288 43.0372 25.4 43.4532 25.4C43.7252 25.4 43.9852 25.352 44.2332 25.256C44.4892 25.16 44.7092 25.032 44.8932 24.872C45.0852 24.704 45.2132 24.524 45.2772 24.332L46.0812 24.572C45.9692 24.868 45.7812 25.136 45.5172 25.376C45.2612 25.608 44.9572 25.792 44.6052 25.928C44.2612 26.056 43.8892 26.12 43.4892 26.12ZM55.4991 26H54.6831V22.508C54.6831 21.804 54.5591 21.276 54.3111 20.924C54.0631 20.564 53.7071 20.384 53.2431 20.384C52.9391 20.384 52.6351 20.464 52.3311 20.624C52.0351 20.776 51.7711 20.988 51.5391 21.26C51.3151 21.524 51.1551 21.828 51.0591 22.172V26H50.2431V17.24H51.0591V21.164C51.3071 20.7 51.6511 20.332 52.0911 20.06C52.5391 19.78 53.0151 19.64 53.5191 19.64C53.8791 19.64 54.1831 19.704 54.4311 19.832C54.6871 19.96 54.8911 20.148 55.0431 20.396C55.2031 20.636 55.3191 20.92 55.3911 21.248C55.4631 21.568 55.4991 21.932 55.4991 22.34V26ZM60.1192 26V19.748H60.9352V26H60.1192ZM60.1192 18.44V17.24H60.9352V18.44H60.1192ZM68.6125 25.7C68.5485 25.724 68.4485 25.768 68.3125 25.832C68.1765 25.896 68.0125 25.952 67.8205 26C67.6285 26.048 67.4205 26.072 67.1965 26.072C66.9645 26.072 66.7445 26.028 66.5365 25.94C66.3365 25.852 66.1765 25.72 66.0565 25.544C65.9365 25.36 65.8765 25.136 65.8765 24.872V20.396H65.0125V19.748H65.8765V17.636H66.6925V19.748H68.1325V20.396H66.6925V24.644C66.7085 24.868 66.7885 25.036 66.9325 25.148C67.0845 25.26 67.2565 25.316 67.4485 25.316C67.6725 25.316 67.8765 25.28 68.0605 25.208C68.2445 25.128 68.3565 25.072 68.3965 25.04L68.6125 25.7ZM75.1066 26.12C74.6586 26.12 74.2426 26.036 73.8586 25.868C73.4746 25.692 73.1426 25.456 72.8626 25.16C72.5826 24.856 72.3626 24.508 72.2026 24.116C72.0506 23.724 71.9746 23.304 71.9746 22.856C71.9746 22.272 72.1066 21.736 72.3706 21.248C72.6426 20.76 73.0146 20.372 73.4866 20.084C73.9586 19.788 74.4946 19.64 75.0946 19.64C75.7106 19.64 76.2466 19.788 76.7026 20.084C77.1666 20.38 77.5306 20.772 77.7946 21.26C78.0586 21.74 78.1906 22.268 78.1906 22.844C78.1906 22.908 78.1906 22.972 78.1906 23.036C78.1906 23.092 78.1866 23.136 78.1786 23.168H72.8266C72.8666 23.616 72.9906 24.016 73.1986 24.368C73.4146 24.712 73.6906 24.988 74.0266 25.196C74.3706 25.396 74.7426 25.496 75.1426 25.496C75.5506 25.496 75.9346 25.392 76.2946 25.184C76.6626 24.976 76.9186 24.704 77.0626 24.368L77.7706 24.56C77.6426 24.856 77.4466 25.124 77.1826 25.364C76.9186 25.604 76.6066 25.792 76.2466 25.928C75.8946 26.056 75.5146 26.12 75.1066 26.12ZM72.8026 22.58H77.4226C77.3906 22.124 77.2666 21.724 77.0506 21.38C76.8426 21.036 76.5666 20.768 76.2226 20.576C75.8866 20.376 75.5146 20.276 75.1066 20.276C74.6986 20.276 74.3266 20.376 73.9906 20.576C73.6546 20.768 73.3786 21.04 73.1626 21.392C72.9546 21.736 72.8346 22.132 72.8026 22.58ZM85.0415 26.12C84.5855 26.12 84.1655 26.036 83.7815 25.868C83.4055 25.692 83.0735 25.452 82.7855 25.148C82.5055 24.844 82.2855 24.496 82.1255 24.104C81.9735 23.712 81.8975 23.296 81.8975 22.856C81.8975 22.264 82.0295 21.724 82.2935 21.236C82.5575 20.748 82.9255 20.36 83.3975 20.072C83.8695 19.784 84.4135 19.64 85.0295 19.64C85.6135 19.64 86.1295 19.776 86.5775 20.048C87.0255 20.312 87.3575 20.672 87.5735 21.128L86.7815 21.38C86.6055 21.06 86.3575 20.812 86.0375 20.636C85.7255 20.452 85.3775 20.36 84.9935 20.36C84.5775 20.36 84.1975 20.468 83.8535 20.684C83.5095 20.9 83.2335 21.196 83.0255 21.572C82.8255 21.948 82.7255 22.376 82.7255 22.856C82.7255 23.328 82.8295 23.756 83.0375 24.14C83.2455 24.524 83.5215 24.832 83.8655 25.064C84.2095 25.288 84.5895 25.4 85.0055 25.4C85.2775 25.4 85.5375 25.352 85.7855 25.256C86.0415 25.16 86.2615 25.032 86.4455 24.872C86.6375 24.704 86.7655 24.524 86.8295 24.332L87.6335 24.572C87.5215 24.868 87.3335 25.136 87.0695 25.376C86.8135 25.608 86.5095 25.792 86.1575 25.928C85.8135 26.056 85.4415 26.12 85.0415 26.12ZM94.7955 25.7C94.7315 25.724 94.6315 25.768 94.4955 25.832C94.3595 25.896 94.1955 25.952 94.0035 26C93.8115 26.048 93.6035 26.072 93.3795 26.072C93.1475 26.072 92.9275 26.028 92.7195 25.94C92.5195 25.852 92.3595 25.72 92.2395 25.544C92.1195 25.36 92.0595 25.136 92.0595 24.872V20.396H91.1955V19.748H92.0595V17.636H92.8755V19.748H94.3155V20.396H92.8755V24.644C92.8915 24.868 92.9715 25.036 93.1155 25.148C93.2675 25.26 93.4395 25.316 93.6315 25.316C93.8555 25.316 94.0595 25.28 94.2435 25.208C94.4275 25.128 94.5395 25.072 94.5795 25.04L94.7955 25.7ZM98.635 23.42V19.748H99.451V23.276C99.451 23.988 99.571 24.52 99.811 24.872C100.059 25.224 100.423 25.4 100.903 25.4C101.223 25.4 101.531 25.332 101.827 25.196C102.131 25.052 102.399 24.852 102.631 24.596C102.863 24.332 103.039 24.028 103.159 23.684V19.748H103.975V25.016C103.975 25.128 103.999 25.212 104.047 25.268C104.095 25.316 104.167 25.344 104.263 25.352V26C104.167 26.008 104.091 26.012 104.035 26.012C103.979 26.02 103.927 26.024 103.879 26.024C103.719 26.008 103.579 25.944 103.459 25.832C103.347 25.72 103.287 25.584 103.279 25.424L103.255 24.584C102.983 25.064 102.611 25.44 102.139 25.712C101.675 25.984 101.171 26.12 100.627 26.12C99.971 26.12 99.475 25.892 99.139 25.436C98.803 24.98 98.635 24.308 98.635 23.42ZM111.82 20.468C111.276 20.484 110.796 20.636 110.38 20.924C109.972 21.212 109.684 21.608 109.516 22.112V26H108.7V19.748H109.468V21.248C109.684 20.808 109.968 20.452 110.32 20.18C110.68 19.908 111.06 19.756 111.46 19.724C111.54 19.716 111.608 19.712 111.664 19.712C111.728 19.712 111.78 19.716 111.82 19.724V20.468ZM118.288 26.12C117.84 26.12 117.424 26.036 117.04 25.868C116.656 25.692 116.324 25.456 116.044 25.16C115.764 24.856 115.544 24.508 115.384 24.116C115.232 23.724 115.156 23.304 115.156 22.856C115.156 22.272 115.288 21.736 115.552 21.248C115.824 20.76 116.196 20.372 116.668 20.084C117.14 19.788 117.676 19.64 118.276 19.64C118.892 19.64 119.428 19.788 119.884 20.084C120.348 20.38 120.712 20.772 120.976 21.26C121.24 21.74 121.372 22.268 121.372 22.844C121.372 22.908 121.372 22.972 121.372 23.036C121.372 23.092 121.368 23.136 121.36 23.168H116.008C116.048 23.616 116.172 24.016 116.38 24.368C116.596 24.712 116.872 24.988 117.208 25.196C117.552 25.396 117.924 25.496 118.324 25.496C118.732 25.496 119.116 25.392 119.476 25.184C119.844 24.976 120.1 24.704 120.244 24.368L120.952 24.56C120.824 24.856 120.628 25.124 120.364 25.364C120.1 25.604 119.788 25.792 119.428 25.928C119.076 26.056 118.696 26.12 118.288 26.12ZM115.984 22.58H120.604C120.572 22.124 120.448 21.724 120.232 21.38C120.024 21.036 119.748 20.768 119.404 20.576C119.068 20.376 118.696 20.276 118.288 20.276C117.88 20.276 117.508 20.376 117.172 20.576C116.836 20.768 116.56 21.04 116.344 21.392C116.136 21.736 116.016 22.132 115.984 22.58Z" fill="#333333"/>
</svg>
