<svg width="12" height="10" viewBox="0 0 12 10" fill="none" xmlns="http://www.w3.org/2000/svg">
<path d="M10.7665 2.42893C10.7741 2.53553 10.7741 2.64214 10.7741 2.74874C10.7741 6 8.29953 9.74622 3.77666 9.74622C2.38325 9.74622 1.08884 9.34265 0 8.64217C0.197977 8.665 0.388314 8.67261 0.593909 8.67261C1.74364 8.67261 2.80203 8.2843 3.64722 7.62186C2.56599 7.59901 1.6599 6.89089 1.34771 5.91626C1.50001 5.93909 1.65228 5.95432 1.81219 5.95432C2.033 5.95432 2.25383 5.92385 2.4594 5.87058C1.3325 5.64213 0.487291 4.65229 0.487291 3.45686V3.42641C0.814691 3.60915 1.19543 3.72337 1.59896 3.73858C0.936519 3.29694 0.502525 2.54314 0.502525 1.69034C0.502525 1.2335 0.624331 0.814714 0.837542 0.449228C2.04821 1.94162 3.86802 2.91622 5.90862 3.02284C5.87055 2.8401 5.8477 2.64976 5.8477 2.4594C5.8477 1.10405 6.94416 0 8.3071 0C9.01522 0 9.65481 0.296954 10.1041 0.776652C10.6599 0.670057 11.1929 0.464463 11.665 0.182743C11.4822 0.753823 11.0939 1.23352 10.5838 1.53807C11.0787 1.48479 11.5584 1.34771 12 1.15737C11.665 1.64466 11.2462 2.07866 10.7665 2.42893Z" fill="#333333" fill-opacity="0.5"/>
<path d="M10.4717 2.02513L10.2481 2.1884L10.2678 2.46457C10.2739 2.55041 10.2741 2.63919 10.2741 2.74874C10.2741 5.7849 7.96606 9.24622 3.77666 9.24622C3.15193 9.24622 2.54918 9.15904 1.97922 8.99587C2.70709 8.80591 3.37691 8.469 3.95566 8.01539L5.05778 7.15156L3.65778 7.12197C3.06903 7.10953 2.54646 6.84321 2.19469 6.42971C2.32833 6.41266 2.45912 6.38717 2.58483 6.35459L2.55874 5.38055C1.90324 5.24766 1.36811 4.79209 1.12637 4.18581C1.27399 4.21453 1.42563 4.2324 1.58013 4.23822L3.34985 4.30493L1.87631 3.32255C1.34757 2.97005 1.00253 2.36958 1.00253 1.69034C1.00253 1.58941 1.00991 1.49099 1.0242 1.39525C2.29101 2.63495 3.99943 3.42377 5.88253 3.52216L6.5304 3.55601L6.39811 2.92089C6.3659 2.76623 6.3477 2.61035 6.3477 2.4594C6.3477 1.37919 7.22131 0.5 8.3071 0.5C8.87263 0.5 9.38142 0.736499 9.73912 1.11843L9.92753 1.31962L10.1982 1.2677C10.2553 1.25676 10.3121 1.24488 10.3687 1.23207L10.6011 1.92708C10.5585 1.96052 10.5154 1.99321 10.4717 2.02513Z" stroke="#333333" stroke-opacity="0.5"/>
</svg>
