<svg width="12" height="11" viewBox="0 0 12 11" fill="none" xmlns="http://www.w3.org/2000/svg">
<path d="M10.7665 2.92893C10.7741 3.03553 10.7741 3.14214 10.7741 3.24874C10.7741 6.5 8.29953 10.2462 3.77666 10.2462C2.38325 10.2462 1.08884 9.84265 0 9.14217C0.197977 9.165 0.388314 9.17261 0.593909 9.17261C1.74364 9.17261 2.80203 8.7843 3.64722 8.12186C2.56599 8.09901 1.6599 7.39089 1.34771 6.41626C1.50001 6.43909 1.65228 6.45432 1.81219 6.45432C2.033 6.45432 2.25383 6.42385 2.4594 6.37058C1.3325 6.14213 0.487291 5.15229 0.487291 3.95686V3.92641C0.814691 4.10915 1.19543 4.22337 1.59896 4.23858C0.936519 3.79694 0.502525 3.04314 0.502525 2.19034C0.502525 1.7335 0.624331 1.31471 0.837542 0.949228C2.04821 2.44162 3.86802 3.41622 5.90862 3.52284C5.87055 3.3401 5.8477 3.14976 5.8477 2.9594C5.8477 1.60405 6.94416 0.5 8.3071 0.5C9.01522 0.5 9.65481 0.796954 10.1041 1.27665C10.6599 1.17006 11.1929 0.964463 11.665 0.682743C11.4822 1.25382 11.0939 1.73352 10.5838 2.03807C11.0787 1.98479 11.5584 1.84771 12 1.65737C11.665 2.14466 11.2462 2.57866 10.7665 2.92893Z" fill="white" fill-opacity="0.5"/>
</svg>
